Coordinates
version=1
nRows=16
nColumns=40
inDegrees=yes

Units are S.I. units (second, meters, Newtons, ...)
Angles are in degrees.

endheader
time	pelvis_tilt	pelvis_list	pelvis_rotation	pelvis_tx	pelvis_ty	pelvis_tz	hip_flexion_r	hip_adduction_r	hip_rotation_r	knee_angle_r	knee_angle_r_beta	ankle_angle_r	subtalar_angle_r	mtp_angle_r	hip_flexion_l	hip_adduction_l	hip_rotation_l	knee_angle_l	knee_angle_l_beta	ankle_angle_l	subtalar_angle_l	mtp_angle_l	lumbar_extension	lumbar_bending	lumbar_rotation	arm_flex_r	arm_add_r	arm_rot_r	elbow_flex_r	pro_sup_r	wrist_flex_r	wrist_dev_r	arm_flex_l	arm_add_l	arm_rot_l	elbow_flex_l	pro_sup_l	wrist_flex_l	wrist_dev_l
     27.99750000	     -3.25037093	     -3.96748724	     -1.44306507	      1.10183961	      0.93724493	      0.41481726	     32.36802849	     -5.80630340	     -6.47911191	     53.78445914	     53.78445914	      1.87300787	    -10.80675140	     -0.15680746	      7.93964810	     -2.74398631	    -12.96353534	     15.72560320	     15.72560320	     13.49064931	     -6.96780790	     -3.44370472	     -9.47838212	      6.78364343	      2.62747849	     -1.12438531	    -12.62056071	    -14.00727499	     39.06491840	     46.66542452	      0.00000000	      0.00000000	     26.74955349	    -14.50517165	      6.64620368	     36.53407169	     45.73169327	      0.00000000	      0.00000000
     28.00900000	     -3.35887975	     -3.94465053	     -1.52253321	      1.10070296	      0.93668826	      0.41461694	     32.79601901	     -5.62160611	     -6.68843880	     50.68870364	     50.68870364	      1.71555115	    -10.35169727	     -0.05302333	      7.30150013	     -2.69996643	    -13.27207188	     15.41224797	     15.41224797	     13.85960641	     -6.40568804	     -3.90410801	     -9.35233129	      6.76946808	      1.55160886	      0.14253810	    -11.94929175	    -16.26968091	     31.12359947	     47.06892256	      0.00000000	      0.00000000	     27.18757055	    -15.97764294	      6.67526007	     39.45083598	     45.77636529	      0.00000000	      0.00000000
     28.02050000	     -3.40014788	     -3.92236568	     -1.63462170	      1.09960729	      0.93616989	      0.41443284	     33.02743401	     -5.43921209	     -6.98890760	     47.34590807	     47.34590807	      1.53024119	     -9.66068297	      0.37537496	      6.53892268	     -2.59862094	    -13.41856595	     14.99544956	     14.99544956	     14.20893740	     -6.19058889	     -4.00373123	     -9.47586384	      6.84957788	      1.77059803	     -1.72935008	    -12.04975869	    -16.53546636	     29.64721205	     47.12675785	      0.00000000	      0.00000000	     28.72217264	    -16.21507476	      6.40463399	     40.88315889	     45.83885509	      0.00000000	      0.00000000
     28.03200000	     -3.44105695	     -3.82698353	     -1.78313544	      1.09863407	      0.93551384	      0.41436317	     33.14091325	     -5.27211480	     -7.23579348	     43.80886364	     43.80886364	      1.37960989	     -8.83452245	      0.66344159	      5.73666308	     -2.43372017	    -13.68964580	     14.53845352	     14.53845352	     14.57515082	     -5.77437368	     -4.20271923	     -9.62742228	      6.81627635	      2.22034543	     -3.45584966	    -12.12738976	    -16.93755468	     27.62022186	     47.22066725	      0.00000000	      0.00000000	     30.14196582	    -16.39972552	      6.07086175	     42.88008700	     45.91145220	      0.00000000	      0.00000000
     28.04350000	     -3.59624870	     -3.69825865	     -1.92916350	      1.09774447	      0.93461989	      0.41451357	     33.18688504	     -5.09301606	     -7.60855015	     39.94412758	     39.94412758	      0.67037290	     -8.16227188	     -0.29054277	      5.08897559	     -2.29373610	    -14.17425940	     14.15933340	     14.15933340	     14.93300036	     -5.02904107	     -4.60558083	     -9.58182860	      6.69819537	      1.46350769	     -3.13886374	    -11.85621711	    -19.78445599	     22.62420723	     47.64541220	      0.00000000	      0.00000000	     29.83947516	    -17.77399880	      4.99051078	     47.61503978	     46.10353991	      0.00000000	      0.00000000
     28.05500000	     -3.70406472	     -3.61316847	     -2.06900950	      1.09703987	      0.93375045	      0.41466699	     33.03469720	     -4.86165933	     -8.14679307	     35.97566050	     35.97566050	      0.46678326	     -7.02935436	      0.27270176	      4.34458848	     -2.13813869	    -14.37492256	     13.69848481	     13.69848481	     15.27030328	     -4.73619446	     -4.72888618	     -9.59004980	      6.66335021	      1.76851914	     -4.98217628	    -11.98233883	    -20.13259619	     21.56274078	     47.70609903	      0.00000000	      0.00000000	     31.12087702	    -17.92394237	      4.62961488	     49.09561249	     46.17142660	      0.00000000	      0.00000000
     28.06650000	     -3.80023415	     -3.48339280	     -2.21472206	      1.09651403	      0.93277647	      0.41495862	     32.74293744	     -4.63798730	     -8.80288686	     31.94176171	     31.94176171	      0.21557697	     -5.72404758	      0.88179048	      3.54829894	     -1.94375391	    -14.66527099	     13.19165850	     13.19165850	     15.60092862	     -4.27404354	     -4.91961932	     -9.60026455	      6.58757349	      2.10277774	     -6.80138746	    -12.09217925	    -20.51006162	     20.49149654	     47.77432544	      0.00000000	      0.00000000	     32.14565801	    -18.07091427	      4.21974229	     51.05302712	     46.24546659	      0.00000000	      0.00000000
     28.07800000	     -3.92458043	     -3.29305478	     -2.39834681	      1.09627439	      0.93156466	      0.41553462	     32.41332762	     -4.41775487	     -9.55893472	     28.02118148	     28.02118148	      0.02466691	     -4.21656605	      1.52238916	      2.76091899	     -1.74579594	    -15.31394339	     12.70272663	     12.70272663	     15.96374464	     -3.29849718	     -5.36352903	     -9.60575011	      6.38190364	      1.75929963	     -7.84192173	    -12.00711297	    -22.41394787	     19.11868045	     48.03468626	      0.00000000	      0.00000000	     31.61635670	    -19.08706194	      2.86828529	     56.21105646	     46.45722088	      0.00000000	      0.00000000
     28.08950000	     -4.03657997	     -3.12528357	     -2.51270912	      1.09620697	      0.93026099	      0.41612455	     31.91570151	     -4.10501518	    -10.31481596	     24.13096819	     24.13096819	     -0.11204317	     -2.90054386	      2.50369679	      1.97305253	     -1.51027870	    -15.45415484	     12.22695427	     12.22695427	     16.31338561	     -2.98825525	     -5.50298513	     -9.47925942	      6.22860388	      1.93923437	     -9.49402002	    -12.09050936	    -22.67982401	     18.37524498	     48.08293460	      0.00000000	      0.00000000	     32.49017114	    -19.19244091	      2.54274797	     57.60393566	     46.51519880	      0.00000000	      0.00000000
     28.10100000	     -3.99141293	     -2.83445937	     -2.66265343	      1.09655139	      0.92893483	      0.41686200	     31.37015899	     -3.98442924	    -11.36753686	     20.90435423	     20.90435423	      0.31080462	     -0.97227591	      4.27709135	      0.88805337	     -1.14292901	    -15.92339270	     11.56683940	     11.56683940	     16.64513748	     -2.18054500	     -5.79515664	     -9.60384999	      5.88382875	      2.29718121	    -11.26074352	    -12.03922997	    -23.39777426	     17.96387978	     48.16838964	      0.00000000	      0.00000000	     32.77402554	    -19.34382227	      1.85679883	     61.03076432	     46.63617838	      0.00000000	      0.00000000
     28.11250000	     -4.11681524	     -2.64195793	     -2.75462615	      1.09698976	      0.92726351	      0.41784521	     30.90824535	     -3.63040554	    -12.12066801	     17.88343483	     17.88343483	      0.41533567	      0.07038828	      5.54033875	      0.12734032	     -0.92070038	    -16.07619197	     11.17489356	     11.17489356	     17.00881635	     -1.87018105	     -5.96988873	     -9.36903996	      5.68228838	      2.34106130	    -12.77684169	    -12.01693979	    -23.67187215	     17.59637057	     48.20089986	      0.00000000	      0.00000000	     33.26022634	    -19.63490732	      1.47593630	     62.70075518	     46.69925423	      0.00000000	      0.00000000
     28.12400000	     -4.08028166	     -2.40883474	     -2.84765976	      1.09778404	      0.92567125	      0.41889358	     30.60010587	     -3.50494599	    -13.25598953	     16.11208139	     16.11208139	      1.83677980	      1.73540017	      9.32804420	     -0.89773343	     -0.66601077	    -16.54113699	     10.67356449	     10.67356449	     17.39668272	     -0.97185526	     -6.23857597	     -9.44542474	      5.38547452	      2.02849259	    -14.37311206	    -11.97214891	    -24.76172559	     18.40942594	     48.26402387	      0.00000000	      0.00000000	     32.27336583	    -20.41375063	      0.23314711	     67.87818230	     46.89430189	      0.00000000	      0.00000000
     28.13550000	     -4.05734304	     -2.26155131	     -2.89278847	      1.09869605	      0.92399084	      0.42016755	     30.15860806	     -3.18750730	    -13.95416386	     14.48771102	     14.48771102	      2.31048854	      2.27042002	     10.70500680	     -1.82617491	     -0.50973368	    -16.63212425	     10.33184245	     10.33184245	     17.83243761	     -0.63047630	     -6.27066265	     -9.35752035	      5.18422413	      2.20950264	    -15.80851282	    -11.91091347	    -25.08762112	     18.20484848	     48.28898393	      0.00000000	      0.00000000	     32.50745440	    -20.50289097	     -0.32019677	     69.95285405	     46.98390707	      0.00000000	      0.00000000
     28.14700000	     -4.14655215	     -2.10458200	     -2.89364214	      1.09973365	      0.92214239	      0.42151269	     29.98998191	     -2.98520149	    -14.56801246	     13.69996314	     13.69996314	      3.15126799	      2.57160411	     12.67323635	     -2.54915016	     -0.41003609	    -16.81719238	     10.19179951	     10.19179951	     18.44891376	     -0.05078764	     -5.99138621	     -9.16230390	      4.98780377	      1.84264787	    -17.04944636	    -11.87161902	    -25.75171876	     18.79279669	     48.29256764	      0.00000000	      0.00000000	     31.75639015	    -20.98857975	     -1.52336053	     73.41485205	     47.17461792	      0.00000000	      0.00000000
     28.15850000	     -4.17263029	     -1.97651882	     -2.85158490	      1.10100224	      0.92032600	      0.42292349	     29.73331514	     -2.79625379	    -14.97972784	     13.33417746	     13.33417746	      3.29034890	      2.36095456	     12.50527497	     -3.31471797	     -0.35495752	    -16.91100772	     10.12026783	     10.12026783	     19.05014249	      0.41811752	     -5.74362613	     -8.97680000	      4.82149857	      1.79841713	    -18.29553824	    -11.80771232	    -26.01383916	     19.05557400	     48.27327432	      0.00000000	      0.00000000	     31.39954223	    -21.16592550	     -2.05777150	     75.98621247	     47.28569375	      0.00000000	      0.00000000
     28.17000000	     -4.20726888	     -1.90228624	     -2.75562460	      1.10235846	      0.91852190	      0.42443898	     29.54127046	     -2.62800060	    -15.20576858	     13.50574303	     13.50574303	      3.29942506	      1.68272481	     11.98649013	     -4.01540417	     -0.38596329	    -16.89304205	     10.14548143	     10.14548143	     19.54551033	      0.63755233	     -5.61278221	     -8.77571413	      4.71636678	      2.18230960	    -19.47005367	    -11.66897452	    -26.08785108	     18.87482497	     48.26803619	      0.00000000	      0.00000000	     31.39234524	    -20.89919656	     -2.35910038	     77.82459132	     47.34941180	      0.00000000	      0.00000000
